<svg width="305" height="234" viewBox="0 0 305 234" fill="none" xmlns="http://www.w3.org/2000/svg">
<path d="M152.5 0C152.5 0 138.081 23.1051 138.081 31.0689C138.081 39.0325 144.536 45.4883 152.5 45.4883C160.464 45.4883 166.919 39.0325 166.919 31.0689C166.919 23.1051 152.5 0 152.5 0ZM142.875 39.1843C142.665 39.1843 142.457 39.0865 142.324 38.9025C138.262 33.2619 140.878 26.0193 140.991 25.7138C141.121 25.3628 141.512 25.1834 141.863 25.3138C142.214 25.4441 142.393 25.834 142.263 26.1851C142.233 26.2671 139.794 33.0687 143.425 38.1099C143.644 38.4138 143.575 38.8376 143.271 39.0564C143.151 39.1427 143.012 39.1843 142.875 39.1843ZM147.837 42.4417C147.717 42.6769 147.479 42.8122 147.232 42.8122C147.129 42.8122 147.024 42.7885 146.925 42.7382C145.617 42.072 144.475 41.2578 143.533 40.3188C143.268 40.0545 143.267 39.6251 143.531 39.3597C143.795 39.0945 144.225 39.0935 144.49 39.3579C145.332 40.1968 146.358 40.9275 147.54 41.5294C147.874 41.6998 148.007 42.108 147.837 42.4417Z" fill="#F97316"/>
<path d="M201.997 62.0919C201.997 62.0613 201.997 62.0306 201.997 62C201.997 61.9694 201.997 61.9388 201.997 61.9081C201.987 56.5903 204.529 51.5929 208.915 48.5874L212.455 46.1627C211.863 43.9131 211.147 41.7137 210.315 39.5719L206.025 39.6907C200.717 39.8375 195.725 37.2977 192.61 32.9967C192.574 32.9459 192.536 32.8952 192.5 32.8445C189.361 28.5452 188.473 23.0039 190.258 17.9885L191.691 13.9595C189.902 12.4983 188.031 11.1345 186.084 9.87735L182.7 12.4816C178.48 15.7299 172.935 16.5917 167.872 14.9388C167.81 14.9182 167.747 14.8978 167.684 14.8775C167.094 14.6875 166.52 14.4627 165.962 14.2108C169.066 20.4838 171.703 27.0076 171.703 31.0691C171.703 31.2363 171.695 31.4017 171.691 31.568C181.776 37.9414 188.475 49.1877 188.475 62.0004C188.475 81.869 172.369 97.9757 152.5 97.9757C132.631 97.9757 116.524 81.869 116.524 62.0004C116.524 49.1879 123.223 37.9414 133.309 31.568C133.305 31.4017 133.296 31.2365 133.296 31.0691C133.296 27.0076 135.934 20.484 139.038 14.2108C138.48 14.4627 137.906 14.6877 137.316 14.8775C137.253 14.8978 137.19 14.9182 137.127 14.9388C132.065 16.5917 126.52 15.7299 122.299 12.4816L118.916 9.87735C116.969 11.1344 115.098 12.4983 113.309 13.9595L114.742 17.9885C116.527 23.0039 115.639 28.545 112.5 32.8445C112.463 32.8952 112.426 32.9461 112.39 32.9967C109.274 37.2977 104.283 39.8375 98.9748 39.6907L94.6846 39.5719C93.853 41.7137 93.1373 43.9131 92.545 46.1627L96.0843 48.5874C100.471 51.5929 103.013 56.5903 103.002 61.9081C103.002 61.9388 103.002 61.9694 103.002 62C103.002 62.0306 103.002 62.0613 103.002 62.0919C103.012 67.4097 100.471 72.4071 96.084 75.4126L92.545 77.8374C93.1373 80.0869 93.853 82.2863 94.6846 84.4281L98.9748 84.3093C104.283 84.1625 109.274 86.7023 112.39 91.0033C112.426 91.0542 112.463 91.1049 112.5 91.1555C115.639 95.4548 116.527 100.996 114.742 106.012L113.309 110.041C115.098 111.502 116.969 112.865 118.916 114.123L122.299 111.518C126.52 108.27 132.065 107.408 137.127 109.061C137.19 109.082 137.253 109.102 137.316 109.122C142.37 110.75 146.326 114.718 147.826 119.811L149.031 123.902C150.18 123.965 151.336 124 152.5 124C153.664 124 154.82 123.965 155.969 123.902L157.174 119.811C158.674 114.718 162.63 110.75 167.684 109.122C167.747 109.102 167.81 109.082 167.873 109.061C172.935 107.408 178.48 108.27 182.701 111.518L186.084 114.123C188.031 112.866 189.902 111.502 191.691 110.041L190.258 106.012C188.473 100.996 189.361 95.455 192.5 91.1555C192.537 91.1049 192.574 91.054 192.61 91.0033C195.726 86.7023 200.717 84.1625 206.025 84.3093L210.315 84.4281C211.147 82.2863 211.863 80.0869 212.455 77.8374L208.916 75.4126C204.529 72.4071 201.987 67.4097 201.997 62.0919Z" fill="#0F2A44"/>
<path d="M185.59 61.0752C182.615 61.7744 179.678 62.6778 176.802 63.6831C169.078 66.3835 161.615 69.8264 153.776 72.17C145.936 74.5138 137.532 75.7287 129.569 73.8493C126.309 73.0801 123.137 71.7197 120.339 69.8531C123.874 84.3286 136.951 95.1049 152.5 95.1049C170.754 95.1049 185.605 80.2541 185.605 61.9999C185.605 61.6909 185.599 61.3828 185.59 61.0752ZM140.058 82.9218C139.354 82.9218 138.782 82.3506 138.782 81.646C138.782 80.9416 139.354 80.3703 140.058 80.3703C140.763 80.3703 141.334 80.9414 141.334 81.646C141.334 82.3506 140.763 82.9218 140.058 82.9218ZM155.307 91.9794C153.898 91.9794 152.755 90.8371 152.755 89.4279C152.755 88.0189 153.898 86.8764 155.307 86.8764C156.716 86.8764 157.858 88.0187 157.858 89.4279C157.858 90.8371 156.716 91.9794 155.307 91.9794ZM167.685 84.7078C167.051 84.7078 166.537 84.1938 166.537 83.5597C166.537 82.9257 167.051 82.4115 167.685 82.4115C168.319 82.4115 168.833 82.9257 168.833 83.5597C168.833 84.1938 168.319 84.7078 167.685 84.7078ZM166.919 76.6707C164.806 76.6707 163.092 74.9573 163.092 72.8434C163.092 70.7298 164.806 69.0163 166.919 69.0163C169.033 69.0163 170.747 70.7298 170.747 72.8434C170.747 74.9573 169.033 76.6707 166.919 76.6707Z" fill="#F97316"/>
<path d="M54.4141 168.623H53.9922C53.7461 166.742 52.9199 165.099 51.5137 163.692C50.125 162.269 48.2881 161.557 46.0029 161.557C44.5088 161.557 43.1816 161.908 42.0215 162.611C40.8613 163.314 39.9648 164.272 39.332 165.485C38.6992 166.698 38.3828 168.087 38.3828 169.651C38.3828 170.864 38.5674 171.945 38.9365 172.895C39.3232 173.826 39.8857 174.652 40.624 175.373C41.3623 176.094 42.2324 176.771 43.2344 177.403C44.2363 178.019 45.5898 178.801 47.2949 179.75C50.1426 181.314 52.3574 182.879 53.9395 184.443C55.5215 185.99 56.3125 188.117 56.3125 190.824C56.3125 192.477 55.8818 194.076 55.0205 195.623C54.1768 197.152 52.8936 198.409 51.1709 199.394C49.4482 200.378 47.3125 200.87 44.7637 200.87C43.1641 200.87 41.749 200.694 40.5186 200.343C39.2881 200.009 38.04 199.534 36.7744 198.919C36.2471 198.743 35.8867 198.655 35.6934 198.655C35.3242 198.655 35.0781 198.787 34.9551 199.051C34.8496 199.314 34.7002 199.886 34.5068 200.765H34.0586V191.035H34.5068C35.1396 193.883 36.3701 196.036 38.1982 197.495C40.0264 198.954 42.25 199.684 44.8691 199.684C46.8379 199.684 48.4111 199.314 49.5889 198.576C50.7842 197.838 51.6104 196.941 52.0674 195.887C52.5244 194.832 52.7529 193.777 52.7529 192.723C52.7529 190.543 52.085 188.768 50.749 187.396C49.4307 186.008 47.418 184.593 44.7109 183.151C42.8477 182.132 41.4678 181.341 40.5713 180.778C39.6748 180.216 38.7607 179.486 37.8291 178.59C36.915 177.693 36.1855 176.639 35.6406 175.426C35.0957 174.195 34.8232 172.789 34.8232 171.207C34.8232 169.379 35.3066 167.63 36.2734 165.96C37.2402 164.29 38.6113 162.954 40.3867 161.952C42.1621 160.933 44.1748 160.423 46.4248 160.423C48.1299 160.423 49.8789 160.713 51.6719 161.293C51.9531 161.434 52.3311 161.504 52.8057 161.504C53.3857 161.504 53.7812 161.108 53.9922 160.317H54.4141V168.623ZM101.717 180.62C101.717 184.259 100.812 187.643 99.001 190.771C97.208 193.9 94.7559 196.396 91.6445 198.26C88.5332 200.105 85.0879 201.028 81.3086 201.028C77.5117 201.028 74.0312 200.105 70.8672 198.26C67.7031 196.396 65.207 193.892 63.3789 190.745C61.5684 187.599 60.6631 184.171 60.6631 180.462C60.6631 177.614 61.1992 174.942 62.2715 172.446C63.3613 169.933 64.873 167.744 66.8066 165.881C68.7578 164.018 70.9727 162.576 73.4512 161.557C75.9473 160.537 78.5488 160.027 81.2559 160.027C83.9102 160.027 86.459 160.52 88.9023 161.504C91.3457 162.471 93.5342 163.877 95.4678 165.723C97.4189 167.568 98.9482 169.757 100.056 172.288C101.163 174.819 101.717 177.597 101.717 180.62ZM97.0762 180.726C97.0762 175.558 96.1621 171.515 94.334 168.597C92.5059 165.679 90.3965 163.728 88.0059 162.743C85.6152 161.741 83.3652 161.24 81.2559 161.24C79.6211 161.24 77.9248 161.513 76.167 162.058C74.4092 162.585 72.6953 163.561 71.0254 164.984C69.373 166.408 68.0107 168.412 66.9385 170.996C65.8662 173.58 65.3301 176.771 65.3301 180.567C65.3301 183.907 65.7695 186.825 66.6484 189.321C67.5449 191.8 68.7666 193.83 70.3135 195.412C71.8779 196.977 73.5918 198.11 75.4551 198.813C77.3359 199.499 79.2871 199.842 81.3086 199.842C83.1191 199.842 84.9473 199.525 86.793 198.893C88.6562 198.242 90.3525 197.196 91.8818 195.755C93.4287 194.296 94.6768 192.327 95.626 189.849C96.5928 187.353 97.0762 184.312 97.0762 180.726ZM106.595 199.578H107.122C108.071 199.578 108.906 199.209 109.627 198.471C110.365 197.715 110.734 196.66 110.734 195.307V165.986C110.734 164.369 110.321 163.244 109.495 162.611C108.687 161.979 107.72 161.645 106.595 161.609V161.161H119.014V161.609C117.924 161.645 116.957 161.97 116.113 162.585C115.27 163.2 114.848 164.334 114.848 165.986V194.331C114.848 196.019 115.27 197.188 116.113 197.838C116.957 198.488 118.337 198.813 120.253 198.813H123.602C125.061 198.813 126.221 198.638 127.082 198.286C127.961 197.935 128.655 197.398 129.165 196.678C129.675 195.957 130.193 194.938 130.721 193.619H131.169L129.692 200H106.595V199.578ZM164.392 161.161V161.609C163.407 161.732 162.59 162.066 161.939 162.611C161.289 163.156 160.735 163.868 160.278 164.747C159.821 165.608 159.303 166.76 158.723 168.201C158.635 168.289 158.547 168.5 158.459 168.834L147.227 201.028H146.857L133.621 166.197C133.621 166.127 133.586 166.021 133.516 165.881C133.006 164.387 132.329 163.297 131.485 162.611C130.659 161.926 129.622 161.592 128.374 161.609V161.161H141.136V161.609C140.063 161.715 139.202 161.926 138.552 162.242C137.901 162.559 137.576 163.314 137.576 164.51C137.576 164.826 137.717 165.477 137.998 166.461C138.033 166.549 138.06 166.646 138.077 166.751C138.112 166.839 138.139 166.909 138.156 166.962L148.36 194.226H148.466L157.22 168.834C157.835 167.094 158.143 165.784 158.143 164.905C158.143 163.517 157.844 162.638 157.246 162.269C156.666 161.899 155.796 161.68 154.636 161.609V161.161H164.392ZM166.923 161.609V161.161H190.073V167.278H189.704C189.704 164.009 187.524 162.374 183.165 162.374H175.07V180.014H182.189C183.596 180.014 184.853 179.785 185.96 179.328C187.067 178.871 187.7 177.825 187.858 176.19H188.254V184.997H187.858C187.7 183.995 187.401 183.23 186.962 182.703C186.522 182.158 186.083 181.798 185.644 181.622C185.222 181.446 184.844 181.358 184.51 181.358C183.877 181.253 183.218 181.2 182.532 181.2H175.07V194.99C175.07 196.027 175.264 196.924 175.65 197.68C176.055 198.436 176.978 198.813 178.419 198.813H184.193C185.582 198.813 186.725 198.611 187.621 198.207C188.518 197.803 189.221 197.24 189.73 196.52C190.258 195.799 190.697 194.929 191.049 193.909H191.418L190.073 200H166.923V199.578H167.45C168.276 199.578 169.085 199.244 169.876 198.576C170.667 197.908 171.062 196.818 171.062 195.307V166.039C171.062 164.844 170.79 163.807 170.245 162.928C169.718 162.049 168.786 161.609 167.45 161.609H166.923ZM234.713 161.161V161.609C233.729 161.732 232.946 161.926 232.366 162.189C231.804 162.436 231.364 162.937 231.048 163.692C230.731 164.431 230.573 165.503 230.573 166.909V200.976H230.31L200.488 167.7V191.589C200.488 193.575 200.567 195.052 200.726 196.019C200.884 196.985 201.112 197.68 201.411 198.102C202.062 199.016 203.195 199.508 204.812 199.578V200H195.083V199.578C196.173 199.525 197.017 199.297 197.614 198.893C198.229 198.471 198.66 197.715 198.906 196.625C199.17 195.518 199.302 193.856 199.302 191.642V166.303L198.01 164.853C196.867 163.552 195.953 162.734 195.268 162.4C194.582 162.049 193.729 161.785 192.71 161.609V161.161H200.014L229.387 194.067V168.992C229.387 167.111 229.308 165.705 229.149 164.773C229.009 163.842 228.613 163.095 227.963 162.532C227.33 161.97 226.328 161.662 224.957 161.609V161.161H234.713ZM271.574 168.729H271.152C270.959 166.197 270.221 164.562 268.938 163.824C267.654 163.068 266.072 162.69 264.191 162.69H256.466V195.307C256.466 198.066 257.872 199.49 260.685 199.578V200H248.318V199.578C249.479 199.543 250.454 199.209 251.245 198.576C252.054 197.926 252.458 196.836 252.458 195.307V162.69H244.732C242.852 162.69 241.27 163.068 239.986 163.824C238.721 164.562 237.982 166.197 237.771 168.729H237.35V159.236H237.771C238.053 159.676 238.299 160.001 238.51 160.212C238.721 160.423 238.993 160.607 239.327 160.766C239.661 160.906 240.048 161.012 240.487 161.082C240.944 161.135 241.48 161.161 242.096 161.161H267.25C268.92 161.161 270.221 160.52 271.152 159.236H271.574V168.729Z" fill="#0F2A44"/>
<path d="M50.7649 233L46.7009 221.544H48.2049L51.0369 229.848L51.4209 230.984H51.4849L51.8849 229.848L54.8449 221.544H56.3489L52.1569 233H50.7649ZM60.2568 233.256C59.4675 233.256 58.7635 233.069 58.1448 232.696C57.5368 232.323 57.0568 231.811 56.7048 231.16C56.3635 230.509 56.1928 229.768 56.1928 228.936C56.1928 228.157 56.3528 227.437 56.6728 226.776C57.0035 226.115 57.4621 225.587 58.0488 225.192C58.6461 224.787 59.3448 224.584 60.1448 224.584C60.9555 224.584 61.6488 224.765 62.2248 225.128C62.8115 225.48 63.2595 225.971 63.5688 226.6C63.8888 227.229 64.0488 227.949 64.0488 228.76C64.0488 228.835 64.0435 228.909 64.0328 228.984C64.0328 229.059 64.0275 229.123 64.0168 229.176H56.9928V228.056H62.6088C62.5981 227.832 62.5448 227.592 62.4488 227.336C62.3635 227.069 62.2195 226.824 62.0168 226.6C61.8248 226.365 61.5741 226.179 61.2648 226.04C60.9661 225.891 60.5928 225.816 60.1448 225.816C59.6115 225.816 59.1475 225.955 58.7528 226.232C58.3688 226.499 58.0701 226.867 57.8568 227.336C57.6541 227.805 57.5528 228.339 57.5528 228.936C57.5528 229.629 57.6861 230.205 57.9528 230.664C58.2195 231.123 58.5608 231.464 58.9768 231.688C59.4035 231.912 59.8461 232.024 60.3048 232.024C60.9021 232.024 61.3928 231.885 61.7768 231.608C62.1715 231.32 62.4861 230.968 62.7208 230.552L63.8728 231.112C63.5528 231.731 63.0941 232.243 62.4968 232.648C61.8995 233.053 61.1528 233.256 60.2568 233.256ZM65.5936 233V224.84H66.8896V226.152H66.9536C67.0602 225.843 67.2362 225.576 67.4816 225.352C67.7376 225.117 68.0256 224.936 68.3456 224.808C68.6762 224.669 69.0016 224.6 69.3216 224.6C69.5669 224.6 69.7589 224.616 69.8976 224.648C70.0362 224.669 70.1642 224.707 70.2816 224.76V226.232C70.1109 226.147 69.9242 226.083 69.7216 226.04C69.5296 225.997 69.3322 225.976 69.1296 225.976C68.7349 225.976 68.3722 226.088 68.0416 226.312C67.7109 226.536 67.4442 226.835 67.2416 227.208C67.0496 227.581 66.9536 227.992 66.9536 228.44V233H65.5936ZM71.5154 233V224.84H72.8754V233H71.5154ZM72.1874 223.336C71.9208 223.336 71.6914 223.24 71.4994 223.048C71.3074 222.856 71.2114 222.627 71.2114 222.36C71.2114 222.083 71.3074 221.853 71.4994 221.672C71.6914 221.48 71.9208 221.384 72.1874 221.384C72.4648 221.384 72.6941 221.48 72.8754 221.672C73.0674 221.853 73.1634 222.083 73.1634 222.36C73.1634 222.627 73.0674 222.856 72.8754 223.048C72.6941 223.24 72.4648 223.336 72.1874 223.336ZM74.2672 226.072V224.84H75.8512V226.072H74.2672ZM75.7712 233V223.96C75.7712 223.459 75.8779 223.021 76.0912 222.648C76.3152 222.264 76.6245 221.965 77.0192 221.752C77.4245 221.528 77.8939 221.416 78.4272 221.416C78.6299 221.416 78.8272 221.432 79.0192 221.464C79.2112 221.496 79.3979 221.544 79.5792 221.608V222.936C79.3659 222.851 79.1632 222.787 78.9712 222.744C78.7899 222.701 78.6192 222.68 78.4592 222.68C78.0645 222.68 77.7445 222.808 77.4992 223.064C77.2539 223.32 77.1312 223.667 77.1312 224.104V233H75.7712ZM77.0512 226.072V224.84H80.9712V226.072H77.0512ZM80.8752 233V224.84H82.2352V233H80.8752ZM81.5472 223.336C81.2805 223.336 81.0512 223.24 80.8592 223.048C80.6672 222.856 80.5712 222.627 80.5712 222.36C80.5712 222.083 80.6672 221.853 80.8592 221.672C81.0512 221.48 81.2805 221.384 81.5472 221.384C81.8245 221.384 82.0539 221.48 82.2352 221.672C82.4272 221.853 82.5232 222.083 82.5232 222.36C82.5232 222.627 82.4272 222.856 82.2352 223.048C82.0539 223.24 81.8245 223.336 81.5472 223.336ZM87.8506 233.256C87.0612 233.256 86.3572 233.069 85.7386 232.696C85.1306 232.323 84.6506 231.811 84.2986 231.16C83.9572 230.509 83.7866 229.768 83.7866 228.936C83.7866 228.157 83.9466 227.437 84.2666 226.776C84.5972 226.115 85.0559 225.587 85.6426 225.192C86.2399 224.787 86.9386 224.584 87.7386 224.584C88.5492 224.584 89.2426 224.765 89.8186 225.128C90.4052 225.48 90.8532 225.971 91.1626 226.6C91.4826 227.229 91.6426 227.949 91.6426 228.76C91.6426 228.835 91.6372 228.909 91.6266 228.984C91.6266 229.059 91.6212 229.123 91.6106 229.176H84.5866V228.056H90.2026C90.1919 227.832 90.1386 227.592 90.0426 227.336C89.9572 227.069 89.8132 226.824 89.6106 226.6C89.4186 226.365 89.1679 226.179 88.8586 226.04C88.5599 225.891 88.1866 225.816 87.7386 225.816C87.2052 225.816 86.7412 225.955 86.3466 226.232C85.9626 226.499 85.6639 226.867 85.4506 227.336C85.2479 227.805 85.1466 228.339 85.1466 228.936C85.1466 229.629 85.2799 230.205 85.5466 230.664C85.8132 231.123 86.1546 231.464 86.5706 231.688C86.9972 231.912 87.4399 232.024 87.8986 232.024C88.4959 232.024 88.9866 231.885 89.3706 231.608C89.7652 231.32 90.0799 230.968 90.3146 230.552L91.4666 231.112C91.1466 231.731 90.6879 232.243 90.0906 232.648C89.4932 233.053 88.7466 233.256 87.8506 233.256ZM96.6593 233.256C95.9233 233.256 95.2566 233.069 94.6593 232.696C94.0726 232.323 93.6086 231.811 93.2673 231.16C92.926 230.509 92.7553 229.763 92.7553 228.92C92.7553 228.077 92.926 227.331 93.2673 226.68C93.6086 226.029 94.0726 225.517 94.6593 225.144C95.2566 224.771 95.9233 224.584 96.6593 224.584C97.0966 224.584 97.4966 224.653 97.8593 224.792C98.222 224.931 98.5366 225.112 98.8033 225.336C99.0806 225.56 99.294 225.8 99.4433 226.056H99.5073L99.4433 224.92V221.544H100.803V233H99.5073V231.8H99.4433C99.294 232.045 99.0806 232.28 98.8033 232.504C98.5366 232.728 98.222 232.909 97.8593 233.048C97.4966 233.187 97.0966 233.256 96.6593 233.256ZM96.8033 232.024C97.2726 232.024 97.71 231.901 98.1153 231.656C98.5313 231.4 98.8673 231.043 99.1233 230.584C99.3793 230.115 99.5073 229.56 99.5073 228.92C99.5073 228.28 99.3793 227.731 99.1233 227.272C98.8673 226.803 98.5313 226.445 98.1153 226.2C97.71 225.944 97.2726 225.816 96.8033 225.816C96.334 225.816 95.8913 225.944 95.4753 226.2C95.07 226.445 94.7393 226.803 94.4833 227.272C94.2273 227.731 94.0993 228.28 94.0993 228.92C94.0993 229.549 94.2273 230.099 94.4833 230.568C94.7393 231.037 95.07 231.4 95.4753 231.656C95.8913 231.901 96.334 232.024 96.8033 232.024ZM106.772 233V221.544H110.884C111.47 221.544 112.009 221.677 112.5 221.944C113.001 222.2 113.401 222.563 113.7 223.032C114.009 223.491 114.164 224.024 114.164 224.632C114.164 225.197 114.02 225.688 113.732 226.104C113.444 226.52 113.065 226.835 112.596 227.048V227.112C113.161 227.293 113.625 227.619 113.988 228.088C114.361 228.557 114.548 229.112 114.548 229.752C114.548 230.392 114.388 230.957 114.068 231.448C113.748 231.928 113.326 232.307 112.804 232.584C112.281 232.861 111.716 233 111.108 233H106.772ZM107.492 227.784V226.488H110.884C111.289 226.488 111.636 226.397 111.924 226.216C112.212 226.024 112.43 225.789 112.58 225.512C112.74 225.235 112.82 224.952 112.82 224.664C112.82 224.376 112.745 224.093 112.596 223.816C112.446 223.539 112.233 223.309 111.956 223.128C111.678 222.936 111.342 222.84 110.948 222.84H108.132V231.704H111.188C111.593 231.704 111.945 231.608 112.244 231.416C112.542 231.213 112.772 230.963 112.932 230.664C113.092 230.355 113.172 230.045 113.172 229.736C113.172 229.416 113.086 229.107 112.916 228.808C112.756 228.509 112.521 228.264 112.212 228.072C111.913 227.88 111.55 227.784 111.124 227.784H107.492ZM115.806 233V231.64C115.838 231.608 115.934 231.507 116.094 231.336C116.254 231.155 116.456 230.931 116.702 230.664C116.947 230.387 117.208 230.093 117.486 229.784C117.774 229.464 118.062 229.144 118.35 228.824C118.638 228.504 118.904 228.211 119.15 227.944C119.395 227.677 119.592 227.464 119.742 227.304C120.243 226.76 120.611 226.28 120.846 225.864C121.091 225.437 121.214 224.989 121.214 224.52C121.214 224.168 121.128 223.848 120.958 223.56C120.787 223.261 120.542 223.027 120.222 222.856C119.912 222.675 119.55 222.584 119.134 222.584C118.739 222.584 118.392 222.669 118.094 222.84C117.806 223.011 117.571 223.219 117.39 223.464C117.219 223.709 117.107 223.949 117.054 224.184L115.822 223.688C115.886 223.464 115.998 223.219 116.158 222.952C116.328 222.675 116.552 222.408 116.83 222.152C117.107 221.896 117.443 221.688 117.838 221.528C118.232 221.368 118.686 221.288 119.198 221.288C119.912 221.288 120.52 221.443 121.022 221.752C121.534 222.061 121.928 222.461 122.206 222.952C122.483 223.432 122.622 223.949 122.622 224.504C122.622 224.984 122.52 225.453 122.318 225.912C122.115 226.371 121.87 226.797 121.582 227.192C121.294 227.576 121.016 227.907 120.75 228.184C120.611 228.323 120.419 228.525 120.174 228.792C119.939 229.048 119.683 229.331 119.406 229.64C119.128 229.939 118.856 230.232 118.59 230.52C118.323 230.808 118.088 231.059 117.886 231.272C117.694 231.485 117.56 231.629 117.486 231.704H122.718V233H115.806ZM124.756 233V221.544H128.868C129.455 221.544 129.994 221.677 130.484 221.944C130.986 222.2 131.386 222.563 131.684 223.032C131.994 223.491 132.148 224.024 132.148 224.632C132.148 225.197 132.004 225.688 131.716 226.104C131.428 226.52 131.05 226.835 130.58 227.048V227.112C131.146 227.293 131.61 227.619 131.972 228.088C132.346 228.557 132.532 229.112 132.532 229.752C132.532 230.392 132.372 230.957 132.052 231.448C131.732 231.928 131.311 232.307 130.788 232.584C130.266 232.861 129.7 233 129.092 233H124.756ZM125.476 227.784V226.488H128.868C129.274 226.488 129.62 226.397 129.908 226.216C130.196 226.024 130.415 225.789 130.564 225.512C130.724 225.235 130.804 224.952 130.804 224.664C130.804 224.376 130.73 224.093 130.58 223.816C130.431 223.539 130.218 223.309 129.94 223.128C129.663 222.936 129.327 222.84 128.932 222.84H126.116V231.704H129.172C129.578 231.704 129.93 231.608 130.228 231.416C130.527 231.213 130.756 230.963 130.916 230.664C131.076 230.355 131.156 230.045 131.156 229.736C131.156 229.416 131.071 229.107 130.9 228.808C130.74 228.509 130.506 228.264 130.196 228.072C129.898 227.88 129.535 227.784 129.108 227.784H125.476ZM138.069 233V221.544H139.429V231.704H144.437V233H138.069ZM148.835 233.256C147.832 233.256 147.075 232.963 146.563 232.376C146.061 231.789 145.811 230.989 145.811 229.976V224.84H147.171V229.768C147.171 230.579 147.357 231.16 147.731 231.512C148.104 231.853 148.568 232.024 149.123 232.024C149.603 232.024 150.019 231.901 150.371 231.656C150.723 231.4 150.995 231.075 151.187 230.68C151.379 230.285 151.475 229.875 151.475 229.448V224.84H152.835V233H151.539V231.816H151.475C151.336 232.072 151.128 232.312 150.851 232.536C150.584 232.749 150.275 232.92 149.923 233.048C149.581 233.187 149.219 233.256 148.835 233.256ZM158.956 233.256C158.519 233.256 158.119 233.187 157.756 233.048C157.394 232.909 157.074 232.728 156.796 232.504C156.53 232.28 156.322 232.045 156.172 231.8H156.108V233H154.812V221.544H156.172V224.92L156.108 226.056H156.172C156.322 225.8 156.53 225.56 156.796 225.336C157.074 225.112 157.394 224.931 157.756 224.792C158.119 224.653 158.519 224.584 158.956 224.584C159.703 224.584 160.37 224.771 160.956 225.144C161.543 225.517 162.007 226.029 162.348 226.68C162.69 227.331 162.86 228.077 162.86 228.92C162.86 229.763 162.69 230.509 162.348 231.16C162.007 231.811 161.543 232.323 160.956 232.696C160.37 233.069 159.703 233.256 158.956 233.256ZM158.812 232.024C159.282 232.024 159.719 231.901 160.124 231.656C160.54 231.4 160.871 231.037 161.116 230.568C161.372 230.099 161.5 229.549 161.5 228.92C161.5 228.28 161.372 227.731 161.116 227.272C160.871 226.803 160.54 226.445 160.124 226.2C159.719 225.944 159.282 225.816 158.812 225.816C158.343 225.816 157.9 225.944 157.484 226.2C157.079 226.445 156.748 226.803 156.492 227.272C156.236 227.731 156.108 228.28 156.108 228.92C156.108 229.56 156.236 230.115 156.492 230.584C156.748 231.043 157.079 231.4 157.484 231.656C157.9 231.901 158.343 232.024 158.812 232.024ZM164.406 233V224.84H165.702V226.152H165.766C165.873 225.843 166.049 225.576 166.294 225.352C166.55 225.117 166.838 224.936 167.158 224.808C167.489 224.669 167.814 224.6 168.134 224.6C168.379 224.6 168.571 224.616 168.71 224.648C168.849 224.669 168.977 224.707 169.094 224.76V226.232C168.923 226.147 168.737 226.083 168.534 226.04C168.342 225.997 168.145 225.976 167.942 225.976C167.547 225.976 167.185 226.088 166.854 226.312C166.523 226.536 166.257 226.835 166.054 227.208C165.862 227.581 165.766 227.992 165.766 228.44V233H164.406ZM170.328 233V224.84H171.688V233H170.328ZM171 223.336C170.733 223.336 170.504 223.24 170.312 223.048C170.12 222.856 170.024 222.627 170.024 222.36C170.024 222.083 170.12 221.853 170.312 221.672C170.504 221.48 170.733 221.384 171 221.384C171.277 221.384 171.507 221.48 171.688 221.672C171.88 221.853 171.976 222.083 171.976 222.36C171.976 222.627 171.88 222.856 171.688 223.048C171.507 223.24 171.277 223.336 171 223.336ZM177.368 233.256C176.568 233.256 175.853 233.069 175.224 232.696C174.605 232.312 174.12 231.795 173.768 231.144C173.416 230.483 173.24 229.741 173.24 228.92C173.24 228.088 173.416 227.347 173.768 226.696C174.12 226.045 174.605 225.533 175.224 225.16C175.853 224.776 176.568 224.584 177.368 224.584C178.285 224.584 179.037 224.797 179.624 225.224C180.221 225.64 180.642 226.179 180.888 226.84L179.656 227.352C179.453 226.851 179.149 226.472 178.744 226.216C178.349 225.949 177.869 225.816 177.304 225.816C176.824 225.816 176.376 225.944 175.96 226.2C175.554 226.456 175.224 226.819 174.968 227.288C174.712 227.747 174.584 228.291 174.584 228.92C174.584 229.539 174.712 230.083 174.968 230.552C175.224 231.021 175.554 231.384 175.96 231.64C176.376 231.896 176.824 232.024 177.304 232.024C177.88 232.024 178.376 231.891 178.792 231.624C179.208 231.357 179.517 230.979 179.72 230.488L180.936 231C180.669 231.629 180.237 232.163 179.64 232.6C179.042 233.037 178.285 233.256 177.368 233.256ZM184.952 233.256C184.344 233.256 183.811 233.139 183.352 232.904C182.894 232.669 182.531 232.349 182.264 231.944C182.008 231.528 181.88 231.059 181.88 230.536C181.88 229.939 182.035 229.437 182.344 229.032C182.654 228.616 183.07 228.307 183.592 228.104C184.115 227.891 184.691 227.784 185.32 227.784C185.683 227.784 186.019 227.816 186.328 227.88C186.638 227.933 186.904 228.003 187.128 228.088C187.363 228.163 187.539 228.237 187.656 228.312V227.816C187.656 227.197 187.438 226.707 187 226.344C186.563 225.981 186.03 225.8 185.4 225.8C184.952 225.8 184.531 225.901 184.136 226.104C183.752 226.296 183.448 226.568 183.224 226.92L182.2 226.152C182.414 225.832 182.68 225.555 183 225.32C183.32 225.085 183.683 224.904 184.088 224.776C184.504 224.648 184.942 224.584 185.4 224.584C186.51 224.584 187.379 224.877 188.008 225.464C188.638 226.051 188.952 226.84 188.952 227.832V233H187.656V231.832H187.592C187.454 232.067 187.256 232.296 187 232.52C186.744 232.733 186.44 232.909 186.088 233.048C185.747 233.187 185.368 233.256 184.952 233.256ZM185.08 232.056C185.55 232.056 185.976 231.939 186.36 231.704C186.755 231.469 187.07 231.155 187.304 230.76C187.539 230.365 187.656 229.933 187.656 229.464C187.411 229.293 187.102 229.155 186.728 229.048C186.366 228.941 185.966 228.888 185.528 228.888C184.75 228.888 184.179 229.048 183.816 229.368C183.454 229.688 183.272 230.083 183.272 230.552C183.272 231 183.443 231.363 183.784 231.64C184.126 231.917 184.558 232.056 185.08 232.056ZM190.812 233V224.84H192.108V226.04H192.172C192.386 225.645 192.732 225.304 193.212 225.016C193.703 224.728 194.236 224.584 194.812 224.584C195.815 224.584 196.567 224.877 197.068 225.464C197.58 226.04 197.836 226.808 197.836 227.768V233H196.476V227.976C196.476 227.187 196.284 226.632 195.9 226.312C195.527 225.981 195.042 225.816 194.444 225.816C193.996 225.816 193.602 225.944 193.26 226.2C192.919 226.445 192.652 226.765 192.46 227.16C192.268 227.555 192.172 227.971 192.172 228.408V233H190.812ZM198.923 226.072V224.84H200.443V226.072H198.923ZM202.635 233.128C201.953 233.128 201.403 232.925 200.987 232.52C200.571 232.104 200.363 231.549 200.363 230.856V222.536H201.723V230.52C201.723 230.979 201.814 231.32 201.995 231.544C202.187 231.757 202.47 231.864 202.843 231.864C203.014 231.864 203.174 231.843 203.323 231.8C203.473 231.747 203.617 231.677 203.755 231.592V232.92C203.585 232.984 203.409 233.032 203.227 233.064C203.046 233.107 202.849 233.128 202.635 233.128ZM201.643 226.072V224.84H203.723V226.072H201.643ZM214.646 233.256C213.804 233.256 213.025 233.101 212.31 232.792C211.596 232.483 210.972 232.056 210.438 231.512C209.916 230.957 209.505 230.323 209.206 229.608C208.918 228.883 208.774 228.104 208.774 227.272C208.774 226.44 208.918 225.667 209.206 224.952C209.505 224.227 209.916 223.592 210.438 223.048C210.972 222.493 211.596 222.061 212.31 221.752C213.025 221.443 213.804 221.288 214.646 221.288C215.489 221.288 216.268 221.443 216.982 221.752C217.697 222.061 218.316 222.493 218.838 223.048C219.372 223.592 219.782 224.227 220.07 224.952C220.369 225.667 220.518 226.44 220.518 227.272C220.518 228.104 220.369 228.883 220.07 229.608C219.782 230.323 219.372 230.957 218.838 231.512C218.316 232.056 217.697 232.483 216.982 232.792C216.268 233.101 215.489 233.256 214.646 233.256ZM214.646 231.96C215.478 231.96 216.23 231.763 216.902 231.368C217.585 230.973 218.129 230.424 218.534 229.72C218.94 229.005 219.142 228.189 219.142 227.272C219.142 226.344 218.94 225.528 218.534 224.824C218.129 224.12 217.585 223.571 216.902 223.176C216.23 222.781 215.478 222.584 214.646 222.584C213.825 222.584 213.073 222.781 212.39 223.176C211.708 223.571 211.164 224.12 210.758 224.824C210.353 225.528 210.15 226.344 210.15 227.272C210.15 228.189 210.353 229.005 210.758 229.72C211.164 230.424 211.708 230.973 212.39 231.368C213.073 231.763 213.825 231.96 214.646 231.96ZM222.219 233V224.84H223.515V226.152H223.579C223.685 225.843 223.861 225.576 224.107 225.352C224.363 225.117 224.651 224.936 224.971 224.808C225.301 224.669 225.627 224.6 225.947 224.6C226.192 224.6 226.384 224.616 226.523 224.648C226.661 224.669 226.789 224.707 226.907 224.76V226.232C226.736 226.147 226.549 226.083 226.347 226.04C226.155 225.997 225.957 225.976 225.755 225.976C225.36 225.976 224.997 226.088 224.667 226.312C224.336 226.536 224.069 226.835 223.867 227.208C223.675 227.581 223.579 227.992 223.579 228.44V233H222.219ZM231.3 233.256C230.564 233.256 229.897 233.069 229.3 232.696C228.713 232.323 228.249 231.811 227.908 231.16C227.567 230.509 227.396 229.763 227.396 228.92C227.396 228.077 227.567 227.331 227.908 226.68C228.249 226.029 228.713 225.517 229.3 225.144C229.897 224.771 230.564 224.584 231.3 224.584C231.737 224.584 232.137 224.653 232.5 224.792C232.863 224.931 233.177 225.112 233.444 225.336C233.721 225.56 233.935 225.8 234.084 226.056H234.148L234.084 224.92V221.544H235.444V233H234.148V231.8H234.084C233.935 232.045 233.721 232.28 233.444 232.504C233.177 232.728 232.863 232.909 232.5 233.048C232.137 233.187 231.737 233.256 231.3 233.256ZM231.444 232.024C231.913 232.024 232.351 231.901 232.756 231.656C233.172 231.4 233.508 231.043 233.764 230.584C234.02 230.115 234.148 229.56 234.148 228.92C234.148 228.28 234.02 227.731 233.764 227.272C233.508 226.803 233.172 226.445 232.756 226.2C232.351 225.944 231.913 225.816 231.444 225.816C230.975 225.816 230.532 225.944 230.116 226.2C229.711 226.445 229.38 226.803 229.124 227.272C228.868 227.731 228.74 228.28 228.74 228.92C228.74 229.549 228.868 230.099 229.124 230.568C229.38 231.037 229.711 231.4 230.116 231.656C230.532 231.901 230.975 232.024 231.444 232.024ZM241.054 233.256C240.264 233.256 239.56 233.069 238.942 232.696C238.334 232.323 237.854 231.811 237.502 231.16C237.16 230.509 236.99 229.768 236.99 228.936C236.99 228.157 237.15 227.437 237.47 226.776C237.8 226.115 238.259 225.587 238.846 225.192C239.443 224.787 240.142 224.584 240.942 224.584C241.752 224.584 242.446 224.765 243.022 225.128C243.608 225.48 244.056 225.971 244.366 226.6C244.686 227.229 244.846 227.949 244.846 228.76C244.846 228.835 244.84 228.909 244.83 228.984C244.83 229.059 244.824 229.123 244.814 229.176H237.79V228.056H243.406C243.395 227.832 243.342 227.592 243.246 227.336C243.16 227.069 243.016 226.824 242.814 226.6C242.622 226.365 242.371 226.179 242.062 226.04C241.763 225.891 241.39 225.816 240.942 225.816C240.408 225.816 239.944 225.955 239.55 226.232C239.166 226.499 238.867 226.867 238.654 227.336C238.451 227.805 238.35 228.339 238.35 228.936C238.35 229.629 238.483 230.205 238.75 230.664C239.016 231.123 239.358 231.464 239.774 231.688C240.2 231.912 240.643 232.024 241.102 232.024C241.699 232.024 242.19 231.885 242.574 231.608C242.968 231.32 243.283 230.968 243.518 230.552L244.67 231.112C244.35 231.731 243.891 232.243 243.294 232.648C242.696 233.053 241.95 233.256 241.054 233.256ZM246.39 233V224.84H247.686V226.152H247.75C247.857 225.843 248.033 225.576 248.278 225.352C248.534 225.117 248.822 224.936 249.142 224.808C249.473 224.669 249.798 224.6 250.118 224.6C250.364 224.6 250.556 224.616 250.694 224.648C250.833 224.669 250.961 224.707 251.078 224.76V226.232C250.908 226.147 250.721 226.083 250.518 226.04C250.326 225.997 250.129 225.976 249.926 225.976C249.532 225.976 249.169 226.088 248.838 226.312C248.508 226.536 248.241 226.835 248.038 227.208C247.846 227.581 247.75 227.992 247.75 228.44V233H246.39ZM254.848 233.256C254.24 233.256 253.701 233.16 253.232 232.968C252.773 232.765 252.389 232.499 252.08 232.168C251.781 231.827 251.557 231.459 251.408 231.064L252.624 230.52C252.837 231.011 253.146 231.389 253.552 231.656C253.957 231.923 254.421 232.056 254.944 232.056C255.445 232.056 255.861 231.955 256.192 231.752C256.533 231.549 256.704 231.251 256.704 230.856C256.704 230.611 256.634 230.408 256.496 230.248C256.357 230.077 256.154 229.933 255.888 229.816C255.621 229.699 255.296 229.592 254.912 229.496L253.92 229.24C253.536 229.133 253.173 228.984 252.832 228.792C252.49 228.6 252.213 228.355 252 228.056C251.797 227.747 251.696 227.373 251.696 226.936C251.696 226.445 251.84 226.024 252.128 225.672C252.416 225.32 252.794 225.053 253.264 224.872C253.733 224.68 254.234 224.584 254.768 224.584C255.237 224.584 255.674 224.653 256.08 224.792C256.496 224.92 256.858 225.117 257.168 225.384C257.477 225.64 257.712 225.96 257.872 226.344L256.688 226.888C256.485 226.483 256.213 226.2 255.872 226.04C255.53 225.88 255.152 225.8 254.736 225.8C254.288 225.8 253.898 225.901 253.568 226.104C253.237 226.296 253.072 226.563 253.072 226.904C253.072 227.245 253.205 227.501 253.472 227.672C253.749 227.843 254.085 227.981 254.48 228.088L255.664 228.392C256.464 228.595 257.066 228.899 257.472 229.304C257.877 229.699 258.08 230.184 258.08 230.76C258.08 231.272 257.936 231.715 257.648 232.088C257.36 232.461 256.97 232.749 256.48 232.952C255.989 233.155 255.445 233.256 254.848 233.256Z" fill="#757575"/>
</svg>
